<svg xmlns="http://www.w3.org/2000/svg" width="130" height="18" viewBox="0 0 130 18">
  <defs>
    <style>
      .cls-1 {
        fill: #040000;
      }
    </style>
  </defs>
  <g id="daohang-logo" transform="translate(0 0.02)">
    <path id="路径_3531" data-name="路径 3531" class="cls-1" d="M13.89,390.346v1.119c0,4.649,3.394,8.426,7.567,8.426h11.4v-3.227h-9.5a4.464,4.464,0,0,1-4.209-4.677v-2.175a4.479,4.479,0,0,1,4.209-4.7h9.5V381.9h-11.4C17.284,381.9,13.89,385.676,13.89,390.346Z" transform="translate(-13.89 -381.92)"/>
    <rect id="矩形_199" data-name="矩形 199" class="cls-1" width="4.955" height="17.986" transform="translate(80.978 -0.015)"/>
    <path id="路径_3532" data-name="路径 3532" class="cls-1" d="M398.167,12.772,388.83,0h-6.08V17.986h4.725V4.624l9.774,13.362h5.636V0h-4.718Z" transform="translate(-295.144 -0.015)"/>
    <path id="路径_3533" data-name="路径 3533" class="cls-1" d="M502.433,384.828h10.052V381.92h-12.54c-4.453,0-8.055,4.047-8.055,9.023s3.6,8.959,8.055,8.959h12.54V389.289H501.351v3.044h6.308v4.486h-5.226c-2.964,0-5.364-2.692-5.364-5.972C497.068,387.52,499.468,384.828,502.433,384.828Z" transform="translate(-382.485 -381.936)"/>
    <path id="路径_3534" data-name="路径 3534" class="cls-1" d="M108.613,0h-4.821V7.293H94.858V0H90.08V17.986h4.814V10.534h8.971v7.452h1.747l3-5.541Z" transform="translate(-69.46 -0.015)"/>
    <path id="路径_3535" data-name="路径 3535" class="cls-1" d="M213.18,430.52h8.8l-4.515-8.89C216.008,424.665,214.614,427.505,213.18,430.52Z" transform="translate(-167.542 -412.54)"/>
    <path id="路径_3536" data-name="路径 3536" class="cls-1" d="M216.24,389.359h-9.507a2,2,0,0,1-1.889-2.116,1.979,1.979,0,0,1,1.889-2.067h13.23V381.96h-15.3a5.328,5.328,0,0,0,0,10.592h9.509a2.118,2.118,0,0,1,0,4.211H201.578c-2.175-4-5.894-10.84-8.08-14.793h-5.125l-8.4,15.508v-.03l-1.353,2.5h5.173c2.334-4.893,4.614-9.526,6.987-14.472l7.364,14.472h18.1a5.324,5.324,0,0,0,0-10.587Z" transform="translate(-140.967 -381.966)"/>
  </g>
</svg>
